<svg width="84" height="104" viewBox="0 0 84 104" fill="none" xmlns="http://www.w3.org/2000/svg">
<rect width="83.244" height="104" fill="black"/>
<path d="M20.501 70.4902C20.1166 69.0539 19.7027 67.7426 19.2593 66.5564H14.0837L12.6226 70.4902H12L16.1391 59.5235L17.3808 56.0035H17.7947C18.8725 58.9964 19.6248 61.0659 20.0517 62.2121C20.4786 63.3583 20.9066 64.4314 21.3359 65.4314C21.7627 66.4337 22.5139 68.1212 23.5894 70.4938L20.501 70.4902ZM19.0859 66.1425C18.7534 65.2722 18.2699 64.1755 17.6355 62.8524C17.1945 61.9539 16.8088 61.1119 16.4787 60.3266L14.2853 66.1425H19.0859Z" fill="white"/>
<path d="M34.5561 66.6377C34.7395 67.57 34.8331 68.5177 34.8356 69.4678C34.8356 69.7438 34.8356 69.9702 34.8143 70.1506C34.7931 70.331 34.7931 70.4478 34.7931 70.5044H31.8958C31.9463 70.1825 31.9735 69.8573 31.9771 69.5315C31.969 68.6566 31.8682 67.785 31.6764 66.9313C31.5346 66.1491 31.2581 65.3974 30.8592 64.7097C30.5447 64.2254 30.1499 63.7983 29.6918 63.4468C29.2676 63.0773 28.7293 62.865 28.1671 62.8454H27.548C27.548 65.0104 27.5692 66.4797 27.6117 67.2533C27.6541 68.0268 27.772 69.1105 27.9654 70.5044H24.8594C24.9584 68.903 25.0351 67.5021 25.0893 66.3016C25.1436 65.1012 25.1707 64.0871 25.1707 63.2593C25.1707 62.4314 25.1436 61.4173 25.0893 60.2169C25.0327 59.0141 24.9584 57.6167 24.8594 56.0142H30.8734C31.3571 56.0457 31.8337 56.147 32.2884 56.3149C32.939 56.5309 33.531 56.8941 34.0184 57.3762C34.2915 57.6595 34.5031 57.9961 34.6401 58.365C34.777 58.7339 34.8364 59.1271 34.8143 59.52C34.8143 60.5813 34.4606 61.3595 33.7884 61.8477C33.1469 62.3184 32.4085 62.6399 31.6269 62.7888C31.9935 62.9483 32.3401 63.1502 32.6599 63.3902C33.0068 63.6389 33.3144 63.9382 33.5726 64.2781C34.0794 64.9775 34.4162 65.7854 34.5561 66.6377ZM29.5043 62.435C29.874 62.4505 30.243 62.3914 30.5895 62.2613C30.9359 62.1313 31.2526 61.9329 31.5208 61.6779C31.7917 61.3945 32.0007 61.058 32.1347 60.6895C32.2687 60.3211 32.3246 59.9289 32.2991 59.5377C32.2991 58.5011 32.016 57.7299 31.45 57.217C30.9028 56.7143 30.1836 56.4408 29.4406 56.4528C28.9168 56.4383 28.3999 56.5746 27.9513 56.8455C27.7809 57.6626 27.6628 58.4897 27.5975 59.3219C27.548 60.0483 27.5232 60.9492 27.5232 62.0246C28.1519 62.2848 28.824 62.424 29.5043 62.435Z" fill="white"/>
<path d="M44.7162 70.4902C43.8884 69.2072 43.2917 68.3028 42.9262 67.7768C42.5606 67.2509 42.1432 66.7132 41.6738 66.1637C41.2021 65.6118 40.3885 64.6873 39.2329 63.3902C39.2329 64.2038 39.26 65.2003 39.3142 66.3795C39.3685 67.5587 39.4451 68.9289 39.5442 70.4902H36.4381C36.5324 68.8888 36.6079 67.4879 36.6645 66.2875C36.7211 65.0871 36.7494 64.0729 36.7494 63.2451C36.7494 62.4173 36.7211 61.4032 36.6645 60.2027C36.6114 58.9999 36.5336 57.6026 36.4381 56H39.5442C39.3484 59.4221 39.2446 61.672 39.2329 62.7498L46.3718 56H46.9945L40.9805 61.8584C42.5134 63.955 43.5747 65.3701 44.1643 66.1035C44.7539 66.837 45.9792 68.2969 47.84 70.4831L44.7162 70.4902Z" fill="white"/>
<path d="M23.791 77.0667C23.7344 78.266 23.7096 79.2778 23.7096 80.1091C23.7096 80.9405 23.7344 81.9487 23.791 83.1515C23.8476 84.3543 23.9219 85.7517 24.0174 87.3507H20.9149C21.0104 85.8083 21.0882 84.4463 21.1413 83.2753C21.1944 82.1043 21.2262 81.1138 21.2262 80.3143H14.8089C14.8089 81.1138 14.836 82.1008 14.8903 83.2753C14.9469 84.4463 15.0212 85.8083 15.1202 87.3507H12.0142C12.1109 85.7517 12.1863 84.3519 12.2406 83.1515C12.2972 81.9487 12.3255 80.9369 12.3255 80.1091C12.3255 79.2813 12.2972 78.266 12.2406 77.0667C12.184 75.8675 12.1097 74.463 12.0142 72.864H15.1202L15.099 73.2991C15.0707 73.7142 15.0188 74.6576 14.9433 76.1292C14.869 77.5938 14.8231 78.786 14.8089 79.7129H21.2262C21.2262 78.786 21.1661 77.5903 21.0918 76.1292C21.0175 74.6682 20.9609 73.7307 20.9361 73.2991L20.9149 72.864H24.0174C23.9231 74.463 23.8476 75.8639 23.791 77.0667Z" fill="white"/>
<path d="M33.6646 76.9394C34.5444 77.3504 35.283 78.0127 35.7872 78.8426C36.3358 79.8527 36.6274 80.9823 36.636 82.1318C36.6446 83.2812 36.3701 84.4151 35.8367 85.4333C35.3486 86.258 34.629 86.921 33.7672 87.3401C32.9165 87.7468 31.9893 87.9687 31.0467 87.991C30.0475 87.9754 29.0633 87.7463 28.16 87.3189C27.2794 86.8989 26.5414 86.2298 26.0374 85.3944C25.482 84.4274 25.2065 83.325 25.2414 82.2105C25.1939 81.0417 25.4956 79.8852 26.1082 78.8886C26.6439 78.0515 27.4089 77.386 28.3121 76.9712C29.1656 76.5799 30.0976 76.3899 31.0361 76.4158C31.9412 76.3821 32.8415 76.5615 33.6646 76.9394ZM29.2142 77.6469C28.7637 78.1516 28.4721 78.7779 28.3758 79.4476C28.216 80.4191 28.1438 81.403 28.16 82.3874C28.143 83.2818 28.2081 84.1758 28.3546 85.0583C28.4538 85.6728 28.7434 86.2407 29.1824 86.6821C29.7039 87.1282 30.3711 87.3674 31.0573 87.3542C31.7166 87.3822 32.3601 87.1482 32.8474 86.7033C33.2569 86.2598 33.5178 85.6996 33.5938 85.1007C33.7102 84.2012 33.761 83.2943 33.7459 82.3874C33.7653 81.3433 33.7074 80.2992 33.5726 79.2636C33.5027 78.6369 33.2336 78.0492 32.8049 77.5868C32.3013 77.1621 31.6503 76.9535 30.9937 77.0066C30.6689 76.985 30.3433 77.0308 30.0371 77.141C29.7309 77.2512 29.4507 77.4234 29.2142 77.6469Z" fill="white"/>
<path d="M48.2574 87.3719C48.4251 87.3645 48.5883 87.3146 48.7315 87.2269C48.8988 87.1402 49.0585 87.0396 49.209 86.9261L49.4779 86.7316V87.1455C49.4779 87.1738 49.393 87.2551 49.2196 87.3931C48.9979 87.558 48.7537 87.6903 48.4944 87.7858C48.1476 87.9166 47.779 87.9803 47.4084 87.9733C47.0982 87.9985 46.7862 87.961 46.4909 87.8632C46.1955 87.7653 45.9228 87.6091 45.6891 87.4037C45.5136 87.2366 45.3736 87.0358 45.2776 86.8133C45.1815 86.5909 45.1314 86.3513 45.1301 86.1089V86.0488C44.7745 86.6134 44.2894 87.0852 43.7151 87.425C43.0112 87.8162 42.2131 88.0059 41.4085 87.9733C40.6838 88.0259 39.9644 87.8163 39.3814 87.3825C38.9239 86.9883 38.6102 86.4532 38.4899 85.8613C38.3392 85.0984 38.2704 84.3216 38.2848 83.5441L38.306 81.9699C38.306 81.1704 38.2741 80.3874 38.2105 79.6209C38.1503 78.8568 38.0867 78.2058 38.0265 77.7282C37.9664 77.2507 37.9169 76.9217 37.8885 76.7943H41.2033C41.1384 77.0107 41.0992 77.2339 41.0866 77.4594C41.0123 77.983 40.9415 78.7223 40.8814 79.674C40.8213 80.6256 40.7894 81.7965 40.7894 83.2116C40.777 84.0101 40.8113 84.8086 40.892 85.6031C40.9254 86.0672 41.0816 86.5141 41.3448 86.8979C41.479 87.0553 41.6488 87.1786 41.8402 87.2573C42.0315 87.336 42.2389 87.368 42.445 87.3507C42.765 87.3507 43.0811 87.2803 43.3709 87.1446C43.6606 87.0089 43.917 86.8111 44.1219 86.5653C44.5955 86.0306 44.9791 85.4225 45.2575 84.7646C45.3141 84.2411 45.3424 83.8626 45.3424 83.6255C45.3424 82.0949 45.3105 80.8225 45.2469 79.8084C45.1867 78.7931 45.116 78.0148 45.0417 77.47C44.9674 76.9252 44.9285 76.6988 44.9285 76.7943H48.2397C48.2397 76.6988 48.2008 76.9252 48.1265 77.47C48.0522 78.0148 47.9815 78.7931 47.9178 79.8084C47.8541 80.8237 47.8258 82.0937 47.8258 83.6255V86.7316C47.8223 87.1596 47.9673 87.3719 48.2574 87.3719Z" fill="white"/>
<path d="M57.3315 76.7023C57.859 76.8774 58.3638 77.1149 58.835 77.4099C59.0439 77.527 59.2376 77.6696 59.4116 77.8344C59.3597 77.9735 59.2418 78.2601 59.0578 78.694C58.8713 79.1285 58.65 79.5473 58.3963 79.9464C58.138 80.3461 57.901 80.5442 57.6888 80.5442C57.6091 80.5384 57.5329 80.5091 57.47 80.46C57.407 80.4109 57.36 80.3441 57.335 80.2683C57.2039 79.9693 57.0962 79.6606 57.0131 79.3449C56.8963 78.9099 56.7473 78.4842 56.5673 78.0714C56.4056 77.7203 56.1632 77.4124 55.8598 77.1728C55.5163 76.9112 55.0919 76.7785 54.6605 76.7978C54.4375 76.7752 54.2122 76.8024 54.0011 76.8776C53.7899 76.9528 53.5981 77.074 53.4396 77.2325C53.2811 77.391 53.1598 77.5828 53.0846 77.794C53.0095 78.0052 52.9822 78.2305 53.0049 78.4535C52.9837 78.9207 53.1305 79.38 53.4188 79.7482C53.6944 80.0881 54.0442 80.3603 54.4412 80.5442C54.9767 80.7902 55.5259 81.0052 56.0862 81.1881C56.6832 81.3758 57.268 81.6003 57.8373 81.8602C58.2781 82.0681 58.6645 82.3758 58.9658 82.7588C59.2812 83.1909 59.4408 83.7172 59.4187 84.2517C59.4218 84.9059 59.239 85.5475 58.8915 86.1019C58.545 86.672 58.0577 87.1434 57.4765 87.4709C56.8722 87.808 56.1908 87.9823 55.499 87.9768C54.7941 87.965 54.0942 87.8567 53.4188 87.6549C52.6979 87.4613 51.9891 87.225 51.2962 86.9474C50.6488 86.6856 50.3234 86.5476 50.3234 86.5335C50.4045 86.2488 50.5013 85.9689 50.6135 85.695C50.7878 85.2173 51.0057 84.7567 51.2644 84.3189C51.5049 83.9191 51.7455 83.7599 51.9719 83.8449C52.1268 83.9093 52.2596 84.0175 52.354 84.1562C52.5514 84.4148 52.7344 84.6841 52.9023 84.9627C53.3368 85.65 53.8444 86.2881 54.4164 86.866C54.6368 87.0919 54.9004 87.2709 55.1916 87.3925C55.4827 87.5141 55.7954 87.5756 56.111 87.5735C56.3353 87.5796 56.5583 87.5365 56.7642 87.4473C56.9702 87.3581 57.1541 87.2248 57.3031 87.057C57.596 86.7495 57.7616 86.3425 57.7666 85.9179C57.7649 85.6677 57.6989 85.4221 57.575 85.2046C57.4511 84.9872 57.2734 84.8052 57.059 84.6762C56.3521 84.2313 55.6033 83.8569 54.8232 83.5583C54.078 83.2399 53.4671 82.9569 52.9907 82.7093C52.5332 82.4759 52.1173 82.1687 51.7596 81.8001C51.4222 81.4591 51.2103 81.014 51.1582 80.5371L51.137 80.247C51.1478 79.672 51.2754 79.1051 51.512 78.5808C51.7914 77.9568 52.243 77.4254 52.8139 77.049C53.5526 76.5823 54.4174 76.355 55.2902 76.3981C55.9828 76.3858 56.6726 76.4887 57.3315 76.7023Z" fill="white"/>
<path d="M68.4044 80.9263L64.0707 83.6609C64.4028 84.6445 64.9886 85.5232 65.7688 86.208C66.406 86.8001 67.2377 87.1385 68.1072 87.1597C68.4971 87.1656 68.8869 87.1479 69.2746 87.1066C69.5612 87.0678 69.8382 86.9767 70.0918 86.8377C70.4291 86.6478 70.7366 86.4095 71.0046 86.1302L71.2097 86.3389C70.9774 86.5721 70.733 86.793 70.4774 87.0005C70.0555 87.2809 69.5941 87.4967 69.1084 87.6408C68.3169 87.8958 67.488 88.0154 66.6568 87.9945C65.5044 88.0413 64.3597 87.7877 63.3349 87.2587C62.5193 86.8183 61.8614 86.1344 61.4529 85.3024C61.0521 84.4635 60.8499 83.5434 60.8621 82.6138C60.8566 81.5736 61.0787 80.5449 61.513 79.5997C61.9486 78.6546 62.6459 77.8542 63.5224 77.2931C64.5242 76.6725 65.6878 76.3634 66.8655 76.4052C67.7883 76.3642 68.7063 76.559 69.5329 76.9712C70.1044 77.2601 70.5917 77.6914 70.9479 78.2235C71.2168 78.6799 71.3017 78.97 71.2062 79.0938C70.3049 79.7532 69.3697 80.3649 68.4044 80.9263ZM67.849 77.4983C67.5376 77.0314 67.0035 76.7908 66.2429 76.7908C65.8783 76.7924 65.5187 76.8763 65.191 77.0361C64.8633 77.196 64.5759 77.4277 64.3502 77.7141C63.8172 78.325 63.5507 79.3285 63.5507 80.7247C63.5489 81.5454 63.6681 82.362 63.9045 83.148C64.9686 82.6025 65.9769 81.9544 66.915 81.2129C67.8489 80.4735 68.3124 79.7164 68.3124 78.9452C68.3045 78.4277 68.1433 77.9241 67.849 77.4983Z" fill="white"/>
</svg>
